<svg xmlns="http://www.w3.org/2000/svg" viewBox="0 0 720 560" role="img" aria-labelledby="title desc">
  <title id="title">Students studying with a teacher</title>
  <desc id="desc">A warm classroom scene with a teacher helping students at a study table.</desc>
  <rect width="720" height="560" rx="28" fill="#e8f3ef"/>
  <rect x="58" y="58" width="604" height="390" rx="24" fill="#fffdf8"/>
  <rect x="92" y="88" width="244" height="130" rx="12" fill="#0f766e"/>
  <path d="M116 125h102M116 156h168M116 187h130" stroke="#f8f0d6" stroke-width="12" stroke-linecap="round"/>
  <circle cx="514" cy="136" r="58" fill="#f4b942"/>
  <path d="M466 138h96M514 90v96" stroke="#fff7d6" stroke-width="12" stroke-linecap="round"/>
  <rect x="135" y="322" width="450" height="42" rx="21" fill="#31576a"/>
  <rect x="156" y="360" width="32" height="110" rx="12" fill="#31576a"/>
  <rect x="532" y="360" width="32" height="110" rx="12" fill="#31576a"/>
  <path d="M252 296c42-38 77-38 114 0" fill="none" stroke="#ef6f5e" stroke-width="20" stroke-linecap="round"/>
  <circle cx="309" cy="224" r="45" fill="#f0b38c"/>
  <path d="M260 216c16-52 80-62 105-12 14 28 7 54-8 75-29-24-64-36-97-63z" fill="#17202a"/>
  <rect x="274" y="270" width="74" height="70" rx="22" fill="#ef6f5e"/>
  <circle cx="184" cy="278" r="35" fill="#b97755"/>
  <path d="M148 272c10-45 68-52 83-7 7 20 2 39-10 54-25-18-48-30-73-47z" fill="#263a4a"/>
  <rect x="154" y="314" width="62" height="48" rx="18" fill="#0f766e"/>
  <circle cx="468" cy="278" r="35" fill="#d99a72"/>
  <path d="M433 270c9-40 57-52 82-19 16 22 13 47 0 68-27-20-54-30-82-49z" fill="#47322c"/>
  <rect x="438" y="314" width="62" height="48" rx="18" fill="#f4b942"/>
  <rect x="250" y="344" width="156" height="68" rx="10" fill="#f7efe0"/>
  <path d="M274 366h48M274 390h82" stroke="#31576a" stroke-width="8" stroke-linecap="round"/>
  <rect x="406" y="344" width="98" height="68" rx="10" fill="#f9d9d3"/>
  <path d="M429 368h42M429 390h30" stroke="#9f3f34" stroke-width="8" stroke-linecap="round"/>
  <path d="M96 448h528" stroke="#dbe4e0" stroke-width="10" stroke-linecap="round"/>
  <circle cx="112" cy="502" r="18" fill="#ef6f5e"/>
  <circle cx="160" cy="502" r="18" fill="#f4b942"/>
  <circle cx="208" cy="502" r="18" fill="#0f766e"/>
</svg>
